<?xml version="1.0" encoding="iso-8859-1"?>
<!-- Generator: Adobe Illustrator 19.0.0, SVG Export Plug-In . SVG Version: 6.00 Build 0)  -->
<svg fill="white" version="1.1" id="Capa_1" xmlns="http://www.w3.org/2000/svg" xmlns:xlink="http://www.w3.org/1999/xlink" x="0px" y="0px"
	 viewBox="0 0 496 496" style="enable-background:new 0 0 496 496;" xml:space="preserve">
<g>
	<g>
		<path d="M181.872,8.992C74.792,38.552,0,136.84,0,248h16c0-98.808,63.168-186.744,155.392-218.992L160.424,61.44l15.16,5.128
			l20.832-61.592L181.872,8.992z"/>
	</g>
</g>
<g>
	<g>
		<path d="M480,248c0,98.808-63.168,186.744-155.392,218.992l10.968-32.424l-15.16-5.128l-20.832,61.592l14.544-4.016
			C421.208,457.448,496,359.16,496,248H480z"/>
	</g>
</g>
<g>
	<g>
		<path d="M248,88c-88.224,0-160,71.776-160,160s71.776,160,160,160s160-71.776,160-160S336.224,88,248,88z M361.568,159.792
			l-17.272-0.04l-42.128-30.608l-5.384-16.456C322.608,122.032,344.992,138.496,361.568,159.792z M271.864,280h-47.736
			l-14.632-44.712L248,209.616l38.504,25.672L271.864,280z M286.176,313.576L269,360h-42l-17.184-46.424L220.496,296h55
			L286.176,313.576z M198.824,223.176l-20.288-6.76L178.4,216.8l-13.224-47.064l33.984-24.688L240,172.28v23.44L198.824,223.176z
			 M256,195.72v-23.44l40.84-27.232l33.976,24.688L317.6,216.8l-0.128-0.392l-20.288,6.76L256,195.72z M217.84,107.232
			c9.736-2.08,19.808-3.232,30.16-3.232s20.424,1.152,30.168,3.232l8.344,25.48L248,158.384l-38.504-25.672L217.84,107.232z
			 M199.216,112.688l-5.384,16.456l-42.128,30.608l-17.272,0.04C151.008,138.496,173.392,122.032,199.216,112.688z M128.96,328.904
			c-14.92-21.888-23.832-48.104-24.728-76.32l13.984,10.208l16.096,49.528L128.96,328.904z M126.464,248.992l-21.696-15.84
			c2.136-20.744,8.808-40.128,18.832-57.336l26.664-0.064l12.512,44.552L126.464,248.992z M174.048,231.784l19.6,6.536l15.12,46.176
			l-12.184,20.048l-48.616-1.968l-12.976-39.936L174.048,231.784z M140.928,343.944l8.16-25.312l46.24,1.864l16.064,43.4
			l-21.664,15.664C171,371.24,154.44,359.008,140.928,343.944z M248,392c-13.936,0-27.376-2.096-40.136-5.808L221.96,376h52.08
			l14.096,10.192C275.376,389.904,261.936,392,248,392z M306.272,379.568l-21.664-15.664l16.064-43.4l46.24-1.864l8.16,25.312
			C341.56,359.008,325,371.24,306.272,379.568z M348.032,302.576l-48.616,1.968l-12.184-20.048l15.12-46.176l19.6-6.536
			l39.056,30.856L348.032,302.576z M333.224,220.312l12.512-44.552l26.664,0.064c10.024,17.208,16.696,36.592,18.832,57.344
			L369.536,249L333.224,220.312z M361.688,312.32l16.096-49.528l13.984-10.208c-0.896,28.216-9.808,54.432-24.728,76.32
			L361.688,312.32z"/>
	</g>
</g>
<g>
	<g>
		<rect x="240" width="16" height="16"/>
	</g>
</g>
<g>
	<g>
		<rect x="8.177" y="302.11" transform="matrix(0.9659 -0.2588 0.2588 0.9659 -79.7076 14.7525)" width="16" height="15.999"/>
	</g>
</g>
<g>
	<g>
		<rect x="32.154" y="360.01" transform="matrix(0.8661 -0.4999 0.4999 0.8661 -178.5888 69.354)" width="16" height="16"/>
	</g>
</g>
<g>
	<g>
		<rect x="70.28" y="409.71" transform="matrix(0.7072 -0.707 0.707 0.7072 -272.4039 177.6476)" width="16" height="16"/>
	</g>
</g>
<g>
	<g>
		<rect x="120.013" y="447.832" transform="matrix(0.4999 -0.8661 0.8661 0.4999 -330.77 338.8352)" width="16" height="16"/>
	</g>
</g>
<g>
	<g>
		<rect x="177.882" y="471.836" transform="matrix(0.259 -0.9659 0.9659 0.259 -325.7242 535.1013)" width="16" height="16"/>
	</g>
</g>
<g>
	<g>
		<rect x="240" y="480" width="16" height="16"/>
	</g>
</g>
<g>
	<g>
		<rect x="471.795" y="177.845" transform="matrix(0.9659 -0.2588 0.2588 0.9659 -31.751 130.5068)" width="16" height="16"/>
	</g>
</g>
<g>
	<g>
		<rect x="447.854" y="119.996" transform="matrix(0.8661 -0.4999 0.4999 0.8661 -2.9396 245.0187)" width="16" height="16"/>
	</g>
</g>
<g>
	<g>
		<rect x="409.676" y="70.305" transform="matrix(0.7072 -0.707 0.707 0.7072 66.931 318.2274)" width="16" height="16"/>
	</g>
</g>
<g>
	<g>
		<rect x="360.002" y="32.141" transform="matrix(0.4999 -0.8661 0.8661 0.4999 149.2741 338.7967)" width="16" height="16"/>
	</g>
</g>
<g>
	<g>
		<rect x="302.089" y="8.161" transform="matrix(0.259 -0.9659 0.9659 0.259 214.1684 311.4844)" width="16" height="16"/>
	</g>
</g>
<g>
</g>
<g>
</g>
<g>
</g>
<g>
</g>
<g>
</g>
<g>
</g>
<g>
</g>
<g>
</g>
<g>
</g>
<g>
</g>
<g>
</g>
<g>
</g>
<g>
</g>
<g>
</g>
<g>
</g>
</svg>
